<svg width="91" height="60" viewBox="0 0 91 60" fill="none" xmlns="http://www.w3.org/2000/svg">
<path fill-rule="evenodd" clip-rule="evenodd" d="M70.3796 23.8303C73.4033 23.2875 75.6052 20.6572 75.6052 17.5833V0.000488281L0.000976562 13.541V36.4344V59.3293L85.1075 44.0879C88.134 43.5465 90.3359 40.9135 90.3359 37.841V20.2568L70.3796 23.8303Z" fill="#162149"/>
<path fill-rule="evenodd" clip-rule="evenodd" d="M20.0774 44.4905L18.597 44.7543C18.4226 44.7864 18.2816 44.9622 18.2816 45.1478V52.4343C18.2816 52.6199 18.1393 52.7957 17.9663 52.8278L16.8542 53.0259C16.6812 53.0566 16.5388 52.9324 16.5388 52.7468V37.0938C16.5388 36.9082 16.6812 36.7324 16.8542 36.7017L17.9663 36.5022C18.1393 36.4715 18.2816 36.5971 18.2816 36.7826V42.6459C18.2816 42.8315 18.4226 42.9557 18.597 42.925L20.0774 42.6599C20.2519 42.6278 20.3928 42.7533 20.3928 42.9389V44.0985C20.3928 44.284 20.2519 44.4599 20.0774 44.4905ZM10.6533 45.1185L15.1253 50.9454C15.2258 51.078 15.1951 51.2915 15.0556 51.4254L14.1598 52.2836C14.0174 52.4217 13.8165 52.4217 13.7147 52.2864L10.3854 47.8282C10.2374 47.6287 9.91651 47.7375 9.82861 48.011C8.79744 51.2287 7.19 53.3817 5.15837 54.0933C4.97 54.1589 4.80396 54.0236 4.80396 53.8212V52.5431C4.80396 52.3854 4.90721 52.2403 5.05093 52.1747C7.84861 50.905 9.32768 45.2385 9.39326 38.6566C9.39605 38.4682 9.54256 38.291 9.71977 38.2659L10.864 38.111C11.037 38.0873 11.1723 38.2185 11.1695 38.4012C11.1388 40.7775 10.9547 42.9445 10.6016 44.8729C10.5849 44.9664 10.603 45.0529 10.6533 45.1185Z" fill="#FEFEFE"/>
<path fill-rule="evenodd" clip-rule="evenodd" d="M33.5473 48.1711C33.2612 48.4404 32.7589 48.6413 32.0529 48.7683L25.4417 49.9515C24.7357 50.0785 24.2319 50.0576 23.9473 49.8888C23.664 49.7227 23.5189 49.3976 23.5189 48.9232C23.5189 48.4474 23.664 48.079 23.9473 47.8236C24.2319 47.5669 24.7357 47.3743 25.4417 47.2474L32.0529 46.0627C32.7589 45.9357 33.2612 45.9511 33.5473 46.1032C33.8319 46.2567 33.9757 46.5748 33.9757 47.0492C33.9757 47.5236 33.8319 47.9018 33.5473 48.1711ZM34.5924 44.7371C34.0357 44.3967 33.1636 44.3283 31.9984 44.5376L25.4961 45.7013C24.3324 45.9106 23.4589 46.2901 22.9022 46.8315C22.344 47.3743 22.0622 48.1641 22.0622 49.1799C22.0622 50.1957 22.344 50.8934 22.9022 51.252C23.4603 51.6106 24.3324 51.6874 25.4961 51.4781L31.9984 50.3129C33.1636 50.105 34.0357 49.7157 34.5924 49.159C35.1505 48.6008 35.4338 47.7999 35.4338 46.7855C35.4338 45.7683 35.1505 45.0804 34.5924 44.7371ZM37.3161 36.9539V38.1036C37.3161 38.2864 37.178 38.4595 37.0063 38.4901L35.5147 38.7567C35.3431 38.7874 35.2036 38.959 35.2036 39.1418V42.9971C35.2036 43.1799 35.0654 43.3529 34.8938 43.3822L33.7733 43.5846C33.6017 43.6139 33.4622 43.4911 33.4622 43.3097V34.0697C33.4622 33.8869 33.6017 33.7139 33.7733 33.6832L34.8938 33.4822C35.0654 33.4515 35.2036 33.5743 35.2036 33.7571V36.672C35.2036 36.8534 35.3431 36.9776 35.5147 36.9455L37.0063 36.679C37.178 36.6483 37.3161 36.7711 37.3161 36.9539ZM21.8152 44.3311V43.2706C21.8152 43.1115 21.9254 42.9595 22.0733 42.9036C24.2863 42.0664 25.6901 40.0292 26.0138 37.625C26.0403 37.4241 25.8896 37.2734 25.7026 37.3069L22.3189 37.9125C22.1473 37.9446 22.0077 37.8218 22.0077 37.639V36.6608C22.0077 36.4781 22.1473 36.3064 22.3189 36.2757L31.2868 34.6683C31.4584 34.639 31.598 34.7618 31.598 34.9446V35.9213C31.598 36.1041 31.4584 36.2771 31.2868 36.3078L28.0817 36.8813C27.9198 36.9106 27.7901 37.0655 27.7747 37.2385C27.7343 37.6906 27.6603 38.1399 27.5584 38.5739C27.5236 38.719 27.5752 38.8543 27.6896 38.9101L31.8087 40.9488C31.9538 41.0213 31.997 41.2195 31.9036 41.3911L31.3789 42.3525C31.2854 42.5227 31.0929 42.6008 30.9491 42.5283L27.1259 40.5846C26.9822 40.512 26.7938 40.5929 26.6989 40.7632C25.7152 42.5241 24.1384 43.925 22.1682 44.5976C21.9826 44.6604 21.8152 44.532 21.8152 44.3311Z" fill="#FEFEFE"/>
<path fill-rule="evenodd" clip-rule="evenodd" d="M50.7713 30.6325L51.8722 30.4357C52.0494 30.405 52.1931 30.532 52.1931 30.719V38.6474C52.1931 38.8371 52.0494 39.0157 51.8722 39.0464L50.7713 39.2446C50.5941 39.2753 50.4503 39.1497 50.4503 38.9599V31.0315C50.4503 30.8432 50.5941 30.6646 50.7713 30.6325ZM50.7475 44.8357V42.1762C50.7475 41.9808 50.5954 41.8497 50.4071 41.8832L41.2382 43.5241C41.0499 43.559 40.8978 43.7446 40.8978 43.9413V46.5995C40.8978 46.7962 41.0499 46.9288 41.2382 46.8939L50.4071 45.2529C50.5954 45.2181 50.7475 45.0311 50.7475 44.8357ZM39.7745 42.2153L51.8722 40.0483C52.0494 40.0176 52.1931 40.1432 52.1931 40.3329V46.1432C52.1931 46.3329 52.0494 46.5115 51.8722 46.5422L39.7745 48.7092C39.5973 48.7413 39.4536 48.6143 39.4536 48.426V42.6143C39.4536 42.426 39.5973 42.2474 39.7745 42.2153ZM39.1759 32.8804L40.2936 32.6808C40.4708 32.6474 40.6145 32.7757 40.6145 32.9641V38.2748C40.6145 38.4618 40.7582 38.5901 40.9354 38.5581L44.6261 37.8967C46.3996 37.5799 47.9331 37.1013 48.9392 36.5641C49.1471 36.4539 49.3592 36.5781 49.3592 36.8125V37.746C49.3592 37.8841 49.2852 38.025 49.1624 38.0976C48.2052 38.6613 46.542 39.2111 44.5564 39.5669L39.1759 40.5311C38.9987 40.5618 38.855 40.4348 38.855 40.2464V33.2781C38.855 33.0911 38.9987 32.9125 39.1759 32.8804Z" fill="#FEFEFE"/>
<path fill-rule="evenodd" clip-rule="evenodd" d="M56.8717 37.8627L65.8075 36.2623C65.9819 36.2302 66.1256 36.053 66.1256 35.866V33.2302C66.1256 33.0418 65.9819 32.9162 65.8075 32.9483L56.8717 34.5474C56.6958 34.5781 56.5535 34.7553 56.5535 34.9437V37.5809C56.5535 37.7678 56.6958 37.8934 56.8717 37.8627ZM68.8521 41.9609V43.0744C68.8521 43.2613 68.7098 43.4385 68.534 43.4706L54.1619 46.0437C53.9861 46.0757 53.8438 45.9502 53.8438 45.7632V44.6469C53.8438 44.4613 53.9861 44.2841 54.1619 44.252L60.1242 43.1846C60.3 43.1525 60.4424 42.9767 60.4424 42.7883V39.2762C60.4424 39.0892 60.3 38.9637 60.1242 38.9957L55.147 39.886C54.9712 39.9181 54.8289 39.7911 54.8289 39.6041V30.2469C54.8289 30.0585 54.9712 29.8813 55.147 29.8506L56.2354 29.6553C56.4112 29.6246 56.5535 29.7516 56.5535 29.9371V32.5506C56.5535 32.7376 56.6958 32.8646 56.8717 32.8339L65.8075 31.232C65.9819 31.2013 66.1256 31.0241 66.1256 30.8371V28.2237C66.1256 28.0367 66.2679 27.8595 66.4438 27.8288L67.5307 27.6334C67.7065 27.6013 67.8489 27.7269 67.8489 27.9139V37.2725C67.8489 37.4595 67.7065 37.6367 67.5307 37.6674L62.5382 38.5632C62.3624 38.5939 62.22 38.7711 62.22 38.9581V42.4716C62.22 42.6585 62.3624 42.7827 62.5382 42.752L68.534 41.6776C68.7098 41.6469 68.8521 41.7739 68.8521 41.9609Z" fill="#FEFEFE"/>
<path fill-rule="evenodd" clip-rule="evenodd" d="M71.5073 27.1348L83.8952 24.9162C84.0752 24.8855 84.2203 25.0125 84.2203 25.2036V26.2864C84.2203 26.4762 84.0752 26.6576 83.8952 26.6897L73.2849 28.5901C73.1049 28.6208 72.9598 28.8022 72.9598 28.9934V34.7129C72.9598 34.9027 73.1049 35.0325 73.2849 35.0004L84.071 33.0678C84.251 33.0357 84.3961 33.1641 84.3961 33.3553V34.4367C84.3961 34.6278 84.251 34.8092 84.071 34.8399L71.5073 37.092C71.3286 37.1227 71.1835 36.9943 71.1835 36.8046V27.5394C71.1835 27.3483 71.3286 27.1669 71.5073 27.1348ZM70.5221 41.3227L84.8803 38.7511C85.0603 38.719 85.2054 38.8488 85.2054 39.0385V40.1394C85.2054 40.3306 85.0603 40.5106 84.8803 40.5427L70.5221 43.1143C70.3435 43.1478 70.197 43.0181 70.197 42.8269V41.726C70.197 41.5348 70.3435 41.3548 70.5221 41.3227Z" fill="#FEFEFE"/>
<path fill-rule="evenodd" clip-rule="evenodd" d="M35.4312 10.6533L34.1754 10.8779C34.0247 10.9058 33.9033 11.0565 33.9033 11.2156V26.9914C33.9033 27.1491 34.0247 27.2579 34.1754 27.2314L35.4312 27.0067C35.5805 26.9802 35.7033 26.8267 35.7033 26.6691V10.8946C35.7033 10.7356 35.5805 10.6253 35.4312 10.6533Z" fill="#FEFEFE"/>
<path fill-rule="evenodd" clip-rule="evenodd" d="M26.6481 26.0716C25.01 26.3646 23.7681 24.8814 23.7681 20.7274C23.7681 16.5916 25.01 14.6465 26.6481 14.3535C28.25 14.066 29.51 15.5632 29.51 19.699C29.51 23.8544 28.25 25.7842 26.6481 26.0716ZM26.6481 12.6107C23.9118 13.1004 21.9849 15.859 21.9849 21.0456C21.9849 26.2363 23.9118 28.3042 26.6481 27.813C29.3663 27.326 31.2932 24.5702 31.2932 19.3795C31.2932 14.1902 29.3663 12.1237 26.6481 12.6107Z" fill="#FEFEFE"/>
<path fill-rule="evenodd" clip-rule="evenodd" d="M41.1291 12.8513C41.1291 12.6936 41.2519 12.5401 41.4012 12.515L50.5073 10.8838C50.6566 10.8559 50.7794 10.9647 50.7794 11.1238V12.0029C50.7794 12.1606 50.6566 12.3126 50.5073 12.3392L41.4012 13.9703C41.2519 13.9968 41.1291 13.888 41.1291 13.7303V12.8513ZM39.6542 15.7201L52.2528 13.4624C52.4022 13.4359 52.5249 13.2852 52.5249 13.1247L52.5333 7.87962C52.5347 7.72055 52.4119 7.61172 52.2626 7.63962L51.0598 7.85451C50.9105 7.88102 50.7863 8.03311 50.7863 8.19218L50.7808 9.12846C50.7794 9.28753 50.6566 9.44102 50.5073 9.46753L41.4012 11.0973C41.2519 11.1252 41.1305 11.0164 41.1305 10.8559L41.1361 9.92102C41.1375 9.76055 41.0161 9.65311 40.8668 9.68102L39.664 9.8959C39.5147 9.92102 39.3919 10.0745 39.3919 10.2336L39.3835 15.4787C39.3835 15.6378 39.5049 15.7452 39.6542 15.7201Z" fill="#FEFEFE"/>
<path fill-rule="evenodd" clip-rule="evenodd" d="M53.3698 14.564L38.5568 17.2166C38.4075 17.2445 38.2847 17.3952 38.2847 17.5557V18.4515C38.2847 18.6105 38.4075 18.7194 38.5568 18.6929L53.3698 16.0403C53.5191 16.0124 53.6419 15.8617 53.6419 15.7012V14.8054C53.6419 14.6464 53.5191 14.5375 53.3698 14.564Z" fill="#FEFEFE"/>
<path fill-rule="evenodd" clip-rule="evenodd" d="M52.5773 22.3477L41.3657 24.3542C41.2164 24.3821 41.0936 24.2746 41.0936 24.1156V23.6202C41.0936 23.4611 41.2164 23.309 41.3657 23.2825L52.3067 21.3235C52.4573 21.2956 52.5787 21.1435 52.5787 20.9844V17.7528C52.5787 17.5951 52.4573 17.4863 52.3067 17.5128L39.5825 19.7914C39.4346 19.8193 39.3118 19.97 39.3118 20.129V20.9481C39.3118 21.1072 39.4346 21.2146 39.5825 21.1895L50.5611 19.2235C50.7104 19.1956 50.8332 19.3044 50.8332 19.4635V19.9574C50.8332 20.1151 50.7104 20.2686 50.5611 20.2937L39.6187 22.2556C39.4694 22.2807 39.348 22.4342 39.348 22.5932V25.8249C39.348 25.9839 39.4694 26.0928 39.6187 26.0649L52.5773 23.7444C52.7267 23.7179 52.8494 23.5658 52.8494 23.4081V22.589C52.8494 22.43 52.7267 22.3197 52.5773 22.3477Z" fill="#FEFEFE"/>
<path fill-rule="evenodd" clip-rule="evenodd" d="M18.8975 13.6147L17.7491 13.8198C17.5984 13.8477 17.4771 13.9984 17.4771 14.1589V29.9319C17.4771 30.0924 17.5984 30.2012 17.7491 30.1733L18.8975 29.9682C19.0468 29.9417 19.1696 29.7882 19.1696 29.6305V13.8561C19.1696 13.697 19.0468 13.5868 18.8975 13.6147Z" fill="#FEFEFE"/>
<path fill-rule="evenodd" clip-rule="evenodd" d="M15.1891 14.3746L14.0408 14.5797C13.8901 14.6076 13.7687 14.7583 13.7687 14.9188V21.2523C13.7687 21.4113 13.6459 21.5634 13.4966 21.5913L11.9156 21.8732C11.7663 21.9011 11.6436 22.0532 11.6436 22.2109V23.376C11.6436 23.5337 11.7663 23.6439 11.9156 23.616L13.4966 23.3327C13.6459 23.3062 13.7687 23.415 13.7687 23.5741V30.3109C13.7687 30.4685 13.8901 30.5774 14.0408 30.5509L15.1891 30.3444C15.3384 30.3178 15.4612 30.1657 15.4612 30.0067V14.616C15.4612 14.4569 15.3384 14.3481 15.1891 14.3746Z" fill="#FEFEFE"/>
<path fill-rule="evenodd" clip-rule="evenodd" d="M12.0753 27.9057C12.0474 27.9113 12.0279 27.9364 12.0028 27.9504C11.993 27.9504 11.9776 27.9434 11.9707 27.9476C10.8949 28.5504 9.55811 28.9788 7.89904 29.2746L6.82462 29.4671C6.68229 29.4853 6.56927 29.3876 6.56648 29.2341V24.7941C6.56788 24.6378 6.68508 24.4941 6.8302 24.4634L10.5669 23.795L10.5697 23.7909C10.7176 23.7616 10.8349 23.615 10.8362 23.4574H10.8376V22.3509H10.8362C10.8349 22.1918 10.7149 22.0843 10.5669 22.1122C10.5642 22.1122 10.5642 22.115 10.5614 22.115L6.82881 22.7834C6.68369 22.8043 6.56927 22.7025 6.56648 22.549V18.3825C6.56788 18.2262 6.68648 18.0783 6.83439 18.0504L11.3176 17.2467C11.3176 17.2467 11.319 17.2481 11.319 17.2467L11.3288 17.2453L11.3358 17.2369C11.4753 17.2006 11.5883 17.0625 11.5883 16.9118V15.8053C11.5883 15.6476 11.4683 15.5416 11.319 15.5667V15.5653L6.56648 16.4178L5.12788 16.6746C4.97857 16.7025 4.85718 16.8518 4.85718 17.0109V18.4034V23.1364V24.8178V29.8188V31.2183C4.85718 31.3774 4.97857 31.4834 5.12788 31.4569L7.80974 30.9769C9.59857 30.6574 11.16 30.1536 12.1772 29.5425C12.2121 29.5216 12.2358 29.495 12.2595 29.4629C12.2609 29.4602 12.2651 29.4588 12.2679 29.456C12.2693 29.4532 12.2721 29.4518 12.2735 29.4504C12.2749 29.4476 12.2707 29.4462 12.2721 29.4448C12.3139 29.3862 12.3446 29.315 12.3446 29.2411C12.3446 29.2411 12.3432 29.2397 12.3432 29.2383L12.346 29.2369V28.1457C12.346 27.9867 12.2246 27.8778 12.0753 27.9057Z" fill="#FEFEFE"/>
<path fill-rule="evenodd" clip-rule="evenodd" d="M69.3093 4.58552L68.0702 4.80738C67.9209 4.83529 67.7981 4.98738 67.7981 5.14506V14.3153C67.7981 14.473 67.9209 14.5818 68.0702 14.5553L69.3093 14.332C69.4586 14.3069 69.5814 14.1534 69.5814 13.9944V4.82692C69.5814 4.66785 69.4586 4.55901 69.3093 4.58552Z" fill="#FEFEFE"/>
<path fill-rule="evenodd" clip-rule="evenodd" d="M66.4292 13.4467C66.4529 13.4327 66.4697 13.4048 66.492 13.3797C66.5018 13.3685 66.5115 13.363 66.5185 13.3532C66.5241 13.3434 66.5366 13.3378 66.5394 13.3309C66.552 13.2988 66.5925 13.1523 66.5925 13.1495V12.2034L66.5911 12.202C66.5911 12.1992 66.5925 12.1992 66.5925 12.1964C66.5925 12.0388 66.4725 11.9313 66.3218 11.9592C66.3008 11.962 66.2869 11.983 66.2673 11.9927C66.259 11.9927 66.2464 11.9844 66.2394 11.9885C65.2111 12.5564 63.6092 13.056 61.7492 13.3895L57.9539 14.069C57.8157 14.0857 57.7055 13.9895 57.6999 13.8416V12.3792C57.7055 12.2271 57.8185 12.0862 57.9608 12.0583L64.7562 10.8416L64.759 10.8388C64.9069 10.8095 65.0269 10.6616 65.0269 10.5039V10.5025V6.7811V6.04435V6.04296C65.0269 5.88528 64.9055 5.77784 64.7562 5.80296L64.4813 5.85459L58.8413 6.86342L56.1692 7.34203C56.0213 7.36994 55.8999 7.51924 55.8999 7.67831V8.65366C55.8999 8.81412 56.0213 8.92156 56.1692 8.89366C56.1706 8.89366 56.1706 8.89226 56.172 8.89226L58.8413 8.41505L63.0022 7.66854C63.1446 7.64901 63.2576 7.74808 63.2618 7.89598V9.31924C63.2576 9.47133 63.1446 9.61366 63.0008 9.64156L56.2069 10.8583C56.2055 10.8597 56.2041 10.8583 56.2027 10.8583C56.0534 10.8848 55.9334 11.0341 55.9334 11.1946C55.9334 11.1974 55.9348 11.1988 55.9348 11.2016V15.6848C55.9348 15.6876 55.9334 15.6904 55.9334 15.6932C55.9334 15.8537 56.0534 15.9597 56.2027 15.9332L61.678 14.9523C63.7362 14.5839 65.4553 14.0202 66.4292 13.4467Z" fill="#FEFEFE"/>
<path fill-rule="evenodd" clip-rule="evenodd" d="M67.6953 19.3456C67.4093 19.6149 66.9069 19.8172 66.2009 19.9442L59.5897 21.1275C58.8837 21.2544 58.38 21.2335 58.0953 21.0633C57.8121 20.8958 57.6669 20.5693 57.6669 20.0921C57.6669 19.6149 57.8121 19.2437 58.0953 18.987C58.38 18.7317 58.8837 18.5363 59.5897 18.4093L66.2009 17.2247C66.9069 17.1005 67.4093 17.113 67.6953 17.2679C67.98 17.4228 68.1237 17.7423 68.1237 18.2182C68.1237 18.6954 67.98 19.0763 67.6953 19.3456ZM68.7404 15.9019C68.1837 15.5586 67.3116 15.4917 66.1465 15.701L59.6442 16.8647C58.4804 17.0726 57.6069 17.4549 57.0502 17.9949C56.4921 18.5391 56.2102 19.3303 56.2102 20.3503C56.2102 21.3675 56.4921 22.0665 57.0502 22.4265C57.6069 22.7865 58.4804 22.8633 59.6442 22.654L66.1465 21.4889C67.3116 21.281 68.1837 20.8917 68.7404 20.3335C69.2986 19.774 69.5818 18.9717 69.5818 17.9544C69.5818 16.9358 69.2986 16.2451 68.7404 15.9019Z" fill="#FEFEFE"/>
</svg>
